<svg width="107" height="35" viewBox="0 0 107 35" fill="none" xmlns="http://www.w3.org/2000/svg">
<circle cx="11.356" cy="18.0001" r="11.356" fill="url(#paint0_angular_254_1060)"/>
<circle cx="11.3559" cy="18.0002" r="5.88324" fill="#8E49B3"/>
<circle cx="11.3562" cy="18" r="2.32593" fill="white"/>
<g filter="url(#filter0_d_254_1060)">
<path d="M43.3602 16.8075H52.5282C52.5632 17.0352 52.5982 17.2803 52.6333 17.543C52.6683 17.7882 52.6858 18.0509 52.6858 18.3311C52.6858 19.4519 52.5107 20.564 52.1604 21.6673C51.8102 22.7706 51.2147 23.7514 50.3741 24.6095C49.516 25.5026 48.509 26.1944 47.3531 26.6848C46.1973 27.1751 44.875 27.4203 43.3864 27.4203C42.038 27.4203 40.7595 27.1751 39.5511 26.6848C38.3602 26.1944 37.3182 25.5114 36.4251 24.6358C35.5319 23.7601 34.8226 22.7269 34.2973 21.536C33.7894 20.3276 33.5354 19.0141 33.5354 17.5956C33.5354 16.177 33.7894 14.8723 34.2973 13.6814C34.8226 12.473 35.5319 11.431 36.4251 10.5554C37.3182 9.67974 38.3602 8.99674 39.5511 8.50638C40.7595 8.01602 42.038 7.77084 43.3864 7.77084C44.8225 7.77084 46.1447 8.02477 47.3531 8.53265C48.579 9.04052 49.6035 9.74979 50.4266 10.6605L48.3514 12.7357C47.7384 12.0527 47.0116 11.5274 46.171 11.1596C45.3479 10.7918 44.411 10.6079 43.3602 10.6079C42.467 10.6079 41.6089 10.7743 40.7858 11.107C39.9627 11.4398 39.2359 11.9126 38.6054 12.5256C37.975 13.121 37.4758 13.8478 37.1081 14.7059C36.7403 15.5641 36.5564 16.5273 36.5564 17.5956C36.5564 18.6639 36.7403 19.6271 37.1081 20.4852C37.4758 21.3433 37.975 22.0789 38.6054 22.6918C39.2359 23.2873 39.9627 23.7514 40.7858 24.0841C41.6089 24.4168 42.4758 24.5832 43.3864 24.5832C44.5948 24.5832 45.5668 24.3993 46.3023 24.0316C47.0554 23.6638 47.6859 23.2347 48.1937 22.7444C48.5615 22.3941 48.8855 21.9388 49.1657 21.3784C49.4459 20.8004 49.6298 20.17 49.7174 19.487H43.3602V16.8075ZM61.06 13.7077C62.0407 13.7077 62.9426 13.8828 63.7657 14.2331C64.5888 14.5658 65.2981 15.0387 65.8935 15.6516C66.489 16.2646 66.9531 16.9914 67.2858 17.832C67.6186 18.6726 67.7849 19.5833 67.7849 20.564C67.7849 21.5447 67.6186 22.4554 67.2858 23.296C66.9531 24.1366 66.489 24.8634 65.8935 25.4764C65.2981 26.0893 64.5888 26.5709 63.7657 26.9212C62.9426 27.2539 62.0407 27.4203 61.06 27.4203C60.0793 27.4203 59.1773 27.2539 58.3542 26.9212C57.5311 26.5709 56.8219 26.0893 56.2264 25.4764C55.631 24.8634 55.1669 24.1366 54.8341 23.296C54.5014 22.4554 54.335 21.5447 54.335 20.564C54.335 19.5833 54.5014 18.6726 54.8341 17.832C55.1669 16.9914 55.631 16.2646 56.2264 15.6516C56.8219 15.0387 57.5311 14.5658 58.3542 14.2331C59.1773 13.8828 60.0793 13.7077 61.06 13.7077ZM61.06 24.7146C61.5503 24.7146 62.0232 24.6182 62.4785 24.4256C62.9339 24.233 63.3366 23.9615 63.6869 23.6113C64.0547 23.261 64.3436 22.8319 64.5538 22.3241C64.764 21.7987 64.869 21.212 64.869 20.564C64.869 19.916 64.764 19.3381 64.5538 18.8302C64.3436 18.3048 64.0547 17.867 63.6869 17.5168C63.3366 17.1665 62.9339 16.8951 62.4785 16.7024C62.0232 16.5098 61.5503 16.4135 61.06 16.4135C60.5696 16.4135 60.0968 16.5098 59.6414 16.7024C59.1861 16.8951 58.7745 17.1665 58.4068 17.5168C58.0565 17.867 57.7763 18.3048 57.5661 18.8302C57.356 19.3381 57.2509 19.916 57.2509 20.564C57.2509 21.212 57.356 21.7987 57.5661 22.3241C57.7763 22.8319 58.0565 23.261 58.4068 23.6113C58.7745 23.9615 59.1861 24.233 59.6414 24.4256C60.0968 24.6182 60.5696 24.7146 61.06 24.7146ZM71.0347 16.7024H68.7756V14.128H71.0347V10.1876H73.9506V14.128H77.1292V16.7024H73.9506V22.4291C73.9506 22.7444 73.9857 23.0333 74.0557 23.296C74.1258 23.5587 74.2308 23.7776 74.3709 23.9528C74.6687 24.2855 75.0452 24.4519 75.5005 24.4519C75.7807 24.4519 75.9996 24.4344 76.1573 24.3993C76.3149 24.3468 76.4812 24.2767 76.6564 24.1892L77.5495 26.7636C77.1818 26.9037 76.7965 27.0088 76.3937 27.0788C75.9909 27.1664 75.5355 27.2102 75.0277 27.2102C74.4147 27.2102 73.8718 27.1138 73.399 26.9212C72.9261 26.7286 72.5146 26.4659 72.1643 26.1331C71.4113 25.3801 71.0347 24.3556 71.0347 23.0596V16.7024ZM85.7365 8.19115H88.705V27H85.7365V8.19115ZM93.2251 16.7024H90.966V14.128H93.2251V10.1876H96.141V14.128H99.3196V16.7024H96.141V22.4291C96.141 22.7444 96.1761 23.0333 96.2461 23.296C96.3162 23.5587 96.4213 23.7776 96.5614 23.9528C96.8591 24.2855 97.2356 24.4519 97.6909 24.4519C97.9711 24.4519 98.1901 24.4344 98.3477 24.3993C98.5053 24.3468 98.6717 24.2767 98.8468 24.1892L99.7399 26.7636C99.3722 26.9037 98.9869 27.0088 98.5841 27.0788C98.1813 27.1664 97.726 27.2102 97.2181 27.2102C96.6051 27.2102 96.0622 27.1138 95.5894 26.9212C95.1165 26.7286 94.705 26.4659 94.3547 26.1331C93.6017 25.3801 93.2251 24.3556 93.2251 23.0596V16.7024Z" fill="url(#paint1_linear_254_1060)"/>
</g>
<defs>
<filter id="filter0_d_254_1060" x="26.7266" y="0.962241" width="79.8221" height="33.2667" filterUnits="userSpaceOnUse" color-interpolation-filters="sRGB">
<feFlood flood-opacity="0" result="BackgroundImageFix"/>
<feColorMatrix in="SourceAlpha" type="matrix" values="0 0 0 0 0 0 0 0 0 0 0 0 0 0 0 0 0 0 127 0" result="hardAlpha"/>
<feOffset/>
<feGaussianBlur stdDeviation="3.40426"/>
<feComposite in2="hardAlpha" operator="out"/>
<feColorMatrix type="matrix" values="0 0 0 0 0.639216 0 0 0 0 0.356863 0 0 0 0 0.788235 0 0 0 0.2 0"/>
<feBlend mode="normal" in2="BackgroundImageFix" result="effect1_dropShadow_254_1060"/>
<feBlend mode="normal" in="SourceGraphic" in2="effect1_dropShadow_254_1060" result="shape"/>
</filter>
<radialGradient id="paint0_angular_254_1060" cx="0" cy="0" r="1" gradientUnits="userSpaceOnUse" gradientTransform="translate(11.356 18.0001) rotate(90) scale(11.4928)">
<stop stop-color="#D9D9D9"/>
<stop offset="1" stop-color="#A65DCE"/>
</radialGradient>
<linearGradient id="paint1_linear_254_1060" x1="66.5635" y1="2" x2="66.5635" y2="34" gradientUnits="userSpaceOnUse">
<stop stop-color="#C8B0D5"/>
<stop offset="1" stop-color="#8E49B3"/>
</linearGradient>
</defs>
</svg>
