<svg width="719" height="304" viewBox="0 0 719 304" fill="none" xmlns="http://www.w3.org/2000/svg">
<rect x="631.028" y="107.98" width="87.0807" height="87.0807" rx="27.8658" fill="url(#paint0_radial_254_927)" fill-opacity="0.2"/>
<rect x="631.528" y="108.48" width="86.0807" height="86.0807" rx="27.3658" stroke="url(#paint1_linear_254_927)" stroke-opacity="0.4"/>
<path d="M667.314 151.521C667.314 147.513 670.562 144.263 674.57 144.263C678.578 144.263 681.827 147.513 681.827 151.521C681.827 155.528 678.578 158.778 674.57 158.778C670.562 158.778 667.314 155.528 667.314 151.521ZM663.391 151.521C663.391 157.695 668.396 162.699 674.57 162.699C680.744 162.699 685.749 157.695 685.749 151.521C685.749 145.347 680.744 140.342 674.57 140.342C668.396 140.342 663.391 145.347 663.391 151.521ZM683.579 139.899C683.579 140.415 683.732 140.92 684.019 141.35C684.306 141.78 684.714 142.115 685.191 142.313C685.668 142.511 686.193 142.563 686.7 142.462C687.207 142.361 687.673 142.113 688.038 141.748C688.404 141.382 688.653 140.917 688.754 140.41C688.855 139.904 688.803 139.378 688.606 138.901C688.408 138.423 688.073 138.015 687.644 137.728C687.214 137.441 686.709 137.287 686.193 137.287H686.192C685.499 137.288 684.835 137.563 684.345 138.052C683.855 138.542 683.58 139.206 683.579 139.899ZM665.774 169.241C663.652 169.144 662.498 168.791 661.731 168.492C660.715 168.096 659.99 167.625 659.227 166.864C658.465 166.102 657.993 165.378 657.599 164.361C657.3 163.595 656.946 162.441 656.85 160.318C656.744 158.024 656.723 157.334 656.723 151.521C656.723 145.707 656.746 145.02 656.85 142.723C656.946 140.6 657.303 139.449 657.599 138.68C657.994 137.664 658.466 136.939 659.227 136.176C659.989 135.414 660.713 134.942 661.731 134.548C662.498 134.249 663.652 133.895 665.774 133.799C668.069 133.693 668.759 133.672 674.57 133.672C680.381 133.672 681.071 133.695 683.368 133.799C685.491 133.895 686.642 134.252 687.411 134.548C688.427 134.942 689.153 135.415 689.915 136.176C690.678 136.937 691.148 137.664 691.544 138.68C691.843 139.446 692.196 140.6 692.293 142.723C692.398 145.02 692.419 145.707 692.419 151.521C692.419 157.334 692.398 158.022 692.293 160.318C692.196 162.441 691.841 163.595 691.544 164.361C691.148 165.378 690.677 166.103 689.915 166.864C689.154 167.624 688.427 168.096 687.411 168.492C686.645 168.791 685.491 169.144 683.368 169.241C681.073 169.347 680.384 169.368 674.57 169.368C668.756 169.368 668.069 169.347 665.774 169.241ZM665.594 129.882C663.276 129.988 661.693 130.355 660.31 130.893C658.877 131.449 657.665 132.195 656.453 133.404C655.241 134.614 654.498 135.829 653.942 137.261C653.404 138.645 653.036 140.228 652.931 142.545C652.823 144.866 652.799 145.608 652.799 151.521C652.799 157.433 652.823 158.175 652.931 160.496C653.036 162.814 653.404 164.396 653.942 165.78C654.498 167.212 655.242 168.427 656.453 169.637C657.665 170.846 658.877 171.59 660.31 172.148C661.695 172.686 663.276 173.053 665.594 173.159C667.917 173.264 668.658 173.291 674.57 173.291C680.482 173.291 681.224 173.266 683.546 173.159C685.863 173.053 687.446 172.686 688.83 172.148C690.262 171.59 691.475 170.846 692.687 169.637C693.898 168.427 694.641 167.212 695.198 165.78C695.736 164.396 696.105 162.814 696.209 160.496C696.315 158.173 696.339 157.433 696.339 151.521C696.339 145.608 696.315 144.866 696.209 142.545C696.104 140.227 695.736 138.644 695.198 137.261C694.641 135.829 693.896 134.616 692.687 133.404C691.477 132.193 690.262 131.449 688.832 130.893C687.446 130.355 685.863 129.986 683.547 129.882C681.226 129.777 680.484 129.75 674.572 129.75C668.659 129.75 667.917 129.775 665.594 129.882Z" fill="url(#paint2_linear_254_927)" fill-opacity="0.8"/>
<rect x="631.028" width="87.0807" height="87.0807" rx="27.8658" fill="url(#paint3_radial_254_927)" fill-opacity="0.2"/>
<rect x="631.528" y="0.5" width="86.0807" height="86.0807" rx="27.3658" stroke="url(#paint4_linear_254_927)" stroke-opacity="0.4"/>
<path d="M684.756 46.2601L685.996 38.3839H678.353V33.2644C678.353 31.1108 679.42 29.0064 682.832 29.0064H686.356V22.2993C684.304 21.9724 682.231 21.7955 680.152 21.7701C673.862 21.7701 669.755 25.5482 669.755 32.3783V38.3839H662.782V46.2601H669.755V65.3105H678.353V46.2601H684.756Z" fill="url(#paint5_linear_254_927)" fill-opacity="0.8"/>
<rect x="631.028" y="215.96" width="87.0807" height="87.0807" rx="27.8658" fill="url(#paint6_radial_254_927)" fill-opacity="0.2"/>
<rect x="631.528" y="216.46" width="86.0807" height="86.0807" rx="27.3658" stroke="url(#paint7_linear_254_927)" stroke-opacity="0.4"/>
<path d="M677.679 255.431L693.242 237.73H689.555L676.036 253.097L665.246 237.73H652.799L669.118 260.969L652.799 279.529H656.485L670.753 263.298L682.15 279.529H694.598M657.816 240.451H663.48L689.552 276.943H683.887" fill="url(#paint8_linear_254_927)" fill-opacity="0.8"/>
<g filter="url(#filter0_d_254_927)">
<rect x="262" y="113" width="169" height="77" rx="27.8658" fill="url(#paint9_radial_254_927)" fill-opacity="0.1" shape-rendering="crispEdges"/>
<rect x="262.5" y="113.5" width="168" height="76" rx="27.3658" stroke="url(#paint10_linear_254_927)" shape-rendering="crispEdges"/>
<path d="M318.96 155.436C318.96 156.94 318.408 158.148 317.304 159.06C316.184 159.956 314.824 160.404 313.224 160.404C311.8 160.404 310.544 159.988 309.456 159.156C308.368 158.324 307.616 157.188 307.2 155.748L309.312 154.884C309.456 155.396 309.656 155.86 309.912 156.276C310.168 156.692 310.464 157.052 310.8 157.356C311.152 157.644 311.536 157.876 311.952 158.052C312.368 158.212 312.808 158.292 313.272 158.292C314.28 158.292 315.104 158.036 315.744 157.524C316.384 156.996 316.704 156.3 316.704 155.436C316.704 154.716 316.44 154.1 315.912 153.588C315.416 153.092 314.488 152.612 313.128 152.148C311.752 151.652 310.896 151.316 310.56 151.14C308.736 150.212 307.824 148.844 307.824 147.036C307.824 145.772 308.328 144.692 309.336 143.796C310.36 142.9 311.616 142.452 313.104 142.452C314.416 142.452 315.552 142.788 316.512 143.46C317.472 144.116 318.112 144.94 318.432 145.932L316.368 146.796C316.176 146.156 315.792 145.628 315.216 145.212C314.656 144.78 313.968 144.564 313.152 144.564C312.288 144.564 311.56 144.804 310.968 145.284C310.376 145.732 310.08 146.316 310.08 147.036C310.08 147.628 310.312 148.14 310.776 148.572C311.288 149.004 312.4 149.516 314.112 150.108C315.856 150.7 317.096 151.428 317.832 152.292C318.584 153.14 318.96 154.188 318.96 155.436ZM326.61 160.404C324.866 160.404 323.418 159.812 322.266 158.628C321.13 157.412 320.562 155.916 320.562 154.14C320.562 152.332 321.13 150.836 322.266 149.652C323.418 148.468 324.866 147.876 326.61 147.876C327.81 147.876 328.858 148.18 329.754 148.788C330.65 149.38 331.322 150.204 331.77 151.26L329.754 152.1C329.13 150.628 328.034 149.892 326.466 149.892C325.458 149.892 324.586 150.3 323.85 151.116C323.13 151.932 322.77 152.94 322.77 154.14C322.77 155.34 323.13 156.348 323.85 157.164C324.586 157.98 325.458 158.388 326.466 158.388C328.082 158.388 329.218 157.652 329.874 156.18L331.842 157.02C331.41 158.076 330.73 158.908 329.802 159.516C328.89 160.108 327.826 160.404 326.61 160.404ZM335.864 160.02H333.656V148.26H335.768V150.18H335.864C336.088 149.556 336.544 149.028 337.232 148.596C337.936 148.148 338.624 147.924 339.296 147.924C339.936 147.924 340.48 148.02 340.928 148.212L340.256 150.348C339.984 150.236 339.552 150.18 338.96 150.18C338.128 150.18 337.4 150.516 336.776 151.188C336.168 151.86 335.864 152.644 335.864 153.54V160.02ZM343.514 156.42C343.514 156.996 343.754 157.476 344.234 157.86C344.73 158.244 345.306 158.436 345.962 158.436C346.89 158.436 347.714 158.092 348.434 157.404C349.17 156.716 349.538 155.908 349.538 154.98C348.85 154.436 347.89 154.164 346.658 154.164C345.762 154.164 345.01 154.38 344.402 154.812C343.81 155.244 343.514 155.78 343.514 156.42ZM346.37 147.876C348.002 147.876 349.29 148.316 350.234 149.196C351.178 150.06 351.65 151.252 351.65 152.772V160.02H349.538V158.388H349.442C348.53 159.732 347.314 160.404 345.794 160.404C344.498 160.404 343.41 160.02 342.53 159.252C341.666 158.484 341.234 157.524 341.234 156.372C341.234 155.156 341.69 154.188 342.602 153.468C343.53 152.748 344.762 152.388 346.298 152.388C347.61 152.388 348.69 152.628 349.538 153.108V152.604C349.538 151.836 349.234 151.188 348.626 150.66C348.018 150.116 347.306 149.844 346.49 149.844C345.258 149.844 344.282 150.364 343.562 151.404L341.618 150.18C342.69 148.644 344.274 147.876 346.37 147.876ZM359.9 158.388C360.956 158.388 361.844 157.988 362.564 157.188C363.284 156.404 363.644 155.388 363.644 154.14C363.644 152.908 363.284 151.892 362.564 151.092C361.844 150.292 360.956 149.892 359.9 149.892C358.828 149.892 357.932 150.292 357.212 151.092C356.508 151.892 356.156 152.908 356.156 154.14C356.156 155.388 356.508 156.412 357.212 157.212C357.932 157.996 358.828 158.388 359.9 158.388ZM360.26 160.404C359.396 160.404 358.604 160.22 357.884 159.852C357.18 159.484 356.636 158.996 356.252 158.388H356.156L356.252 160.02V165.204H354.044V148.26H356.156V149.892H356.252C356.636 149.284 357.18 148.796 357.884 148.428C358.604 148.06 359.396 147.876 360.26 147.876C361.812 147.876 363.124 148.484 364.196 149.7C365.3 150.932 365.852 152.412 365.852 154.14C365.852 155.884 365.3 157.364 364.196 158.58C363.124 159.796 361.812 160.404 360.26 160.404ZM373.154 160.404C371.426 160.404 370.002 159.812 368.882 158.628C367.762 157.444 367.202 155.948 367.202 154.14C367.202 152.348 367.746 150.86 368.834 149.676C369.922 148.476 371.314 147.876 373.01 147.876C374.754 147.876 376.138 148.444 377.162 149.58C378.202 150.7 378.722 152.276 378.722 154.308L378.698 154.548H369.458C369.49 155.7 369.874 156.628 370.61 157.332C371.346 158.036 372.226 158.388 373.25 158.388C374.658 158.388 375.762 157.684 376.562 156.276L378.53 157.236C378.002 158.228 377.266 159.004 376.322 159.564C375.394 160.124 374.338 160.404 373.154 160.404ZM369.626 152.724H376.37C376.306 151.908 375.97 151.236 375.362 150.708C374.77 150.164 373.97 149.892 372.962 149.892C372.13 149.892 371.41 150.148 370.802 150.66C370.21 151.172 369.818 151.86 369.626 152.724ZM382.949 160.02H380.741V148.26H382.853V150.18H382.949C383.173 149.556 383.629 149.028 384.317 148.596C385.021 148.148 385.709 147.924 386.381 147.924C387.021 147.924 387.565 148.02 388.013 148.212L387.341 150.348C387.069 150.236 386.637 150.18 386.045 150.18C385.213 150.18 384.485 150.516 383.861 151.188C383.253 151.86 382.949 152.644 382.949 153.54V160.02Z" fill="url(#paint11_linear_254_927)"/>
</g>
<path d="M442.934 151.521L526.096 151.521C549.181 151.521 567.894 132.807 567.894 109.722V85.3391C567.894 62.2543 586.608 43.5404 609.693 43.5404H631.028" stroke="#58575C"/>
<path d="M442.934 151.521H631.899" stroke="#58575C"/>
<path d="M141 152H262" stroke="#58575C"/>
<path d="M432.5 151.52L526.096 151.52C549.181 151.52 567.894 170.234 567.894 193.319V217.702C567.894 240.787 586.608 259.501 609.693 259.501H631.028" stroke="#58575C"/>
<circle cx="631.028" cy="151.52" r="3.48323" fill="#4D4C51"/>
<circle cx="431.483" cy="151.52" r="3.48323" fill="#4D4C51"/>
<circle cx="262.483" cy="151.52" r="3.48323" fill="#4D4C51"/>
<rect y="33" width="141.153" height="237.394" rx="13.9329" fill="url(#paint12_linear_254_927)"/>
<rect x="0.5" y="33.5" width="140.153" height="236.394" rx="13.4329" stroke="url(#paint13_linear_254_927)" stroke-opacity="0.5"/>
<rect x="4.9541" y="42.9092" width="130.801" height="217.01" rx="8.70807" fill="url(#paint14_linear_254_927)"/>
<rect x="5.4541" y="43.4092" width="129.801" height="216.01" rx="8.20807" stroke="url(#paint15_linear_254_927)" stroke-opacity="0.5"/>
<path d="M35.6729 251.992L99.0914 251.992" stroke="white" stroke-opacity="0.2" stroke-width="0.870807"/>
<circle cx="70.2349" cy="151.79" r="12.7623" fill="url(#paint16_angular_254_927)"/>
<circle cx="70.2348" cy="151.79" r="6.61179" fill="#343434"/>
<circle cx="70.2351" cy="151.79" r="2.61396" fill="#E9E9EA"/>
<circle cx="140.483" cy="151.52" r="3.48323" fill="#4D4C51"/>
<defs>
<filter id="filter0_d_254_927" x="162" y="13" width="369" height="277" filterUnits="userSpaceOnUse" color-interpolation-filters="sRGB">
<feFlood flood-opacity="0" result="BackgroundImageFix"/>
<feColorMatrix in="SourceAlpha" type="matrix" values="0 0 0 0 0 0 0 0 0 0 0 0 0 0 0 0 0 0 127 0" result="hardAlpha"/>
<feOffset/>
<feGaussianBlur stdDeviation="50"/>
<feComposite in2="hardAlpha" operator="out"/>
<feColorMatrix type="matrix" values="0 0 0 0 0.435692 0 0 0 0 0.661415 0 0 0 0 1 0 0 0 0.4 0"/>
<feBlend mode="normal" in2="BackgroundImageFix" result="effect1_dropShadow_254_927"/>
<feBlend mode="normal" in="SourceGraphic" in2="effect1_dropShadow_254_927" result="shape"/>
</filter>
<radialGradient id="paint0_radial_254_927" cx="0" cy="0" r="1" gradientUnits="userSpaceOnUse" gradientTransform="translate(674.569 151.52) scale(43.5404 43.5404)">
<stop offset="0.260052" stop-color="white" stop-opacity="0"/>
<stop offset="1" stop-color="white" stop-opacity="0.5"/>
</radialGradient>
<linearGradient id="paint1_linear_254_927" x1="674.569" y1="107.98" x2="674.569" y2="195.061" gradientUnits="userSpaceOnUse">
<stop stop-color="white"/>
<stop offset="1" stop-color="white" stop-opacity="0"/>
</linearGradient>
<linearGradient id="paint2_linear_254_927" x1="674.569" y1="129.75" x2="674.569" y2="173.291" gradientUnits="userSpaceOnUse">
<stop stop-color="white"/>
<stop offset="1" stop-color="white" stop-opacity="0.6"/>
</linearGradient>
<radialGradient id="paint3_radial_254_927" cx="0" cy="0" r="1" gradientUnits="userSpaceOnUse" gradientTransform="translate(674.569 43.5404) scale(43.5404 43.5404)">
<stop offset="0.260052" stop-color="white" stop-opacity="0"/>
<stop offset="1" stop-color="white" stop-opacity="0.5"/>
</radialGradient>
<linearGradient id="paint4_linear_254_927" x1="674.569" y1="0" x2="674.569" y2="87.0807" gradientUnits="userSpaceOnUse">
<stop stop-color="white"/>
<stop offset="1" stop-color="white" stop-opacity="0"/>
</linearGradient>
<linearGradient id="paint5_linear_254_927" x1="674.569" y1="21.7701" x2="674.569" y2="65.3105" gradientUnits="userSpaceOnUse">
<stop stop-color="white"/>
<stop offset="1" stop-color="white" stop-opacity="0.6"/>
</linearGradient>
<radialGradient id="paint6_radial_254_927" cx="0" cy="0" r="1" gradientUnits="userSpaceOnUse" gradientTransform="translate(674.569 259.501) scale(43.5404 43.5404)">
<stop offset="0.260052" stop-color="white" stop-opacity="0"/>
<stop offset="1" stop-color="white" stop-opacity="0.5"/>
</radialGradient>
<linearGradient id="paint7_linear_254_927" x1="674.569" y1="215.96" x2="674.569" y2="303.041" gradientUnits="userSpaceOnUse">
<stop stop-color="white"/>
<stop offset="1" stop-color="white" stop-opacity="0"/>
</linearGradient>
<linearGradient id="paint8_linear_254_927" x1="673.698" y1="237.73" x2="673.698" y2="279.529" gradientUnits="userSpaceOnUse">
<stop stop-color="white"/>
<stop offset="1" stop-color="white" stop-opacity="0.6"/>
</linearGradient>
<radialGradient id="paint9_radial_254_927" cx="0" cy="0" r="1" gradientUnits="userSpaceOnUse" gradientTransform="translate(346.5 151.5) scale(84.5 38.5)">
<stop offset="0.260052" stop-color="white" stop-opacity="0.1"/>
<stop offset="1" stop-color="white" stop-opacity="0.5"/>
</radialGradient>
<linearGradient id="paint10_linear_254_927" x1="346.5" y1="113" x2="346.5" y2="190" gradientUnits="userSpaceOnUse">
<stop stop-color="#96A5B6"/>
<stop offset="1" stop-color="white" stop-opacity="0"/>
</linearGradient>
<linearGradient id="paint11_linear_254_927" x1="347.624" y1="137.02" x2="347.624" y2="166.02" gradientUnits="userSpaceOnUse">
<stop stop-color="white"/>
<stop offset="1" stop-color="white" stop-opacity="0.4"/>
</linearGradient>
<linearGradient id="paint12_linear_254_927" x1="70.5765" y1="33" x2="70.5765" y2="270.394" gradientUnits="userSpaceOnUse">
<stop stop-color="white" stop-opacity="0.1"/>
<stop offset="1" stop-color="white" stop-opacity="0"/>
</linearGradient>
<linearGradient id="paint13_linear_254_927" x1="70.5765" y1="33" x2="70.5765" y2="259.919" gradientUnits="userSpaceOnUse">
<stop stop-color="white"/>
<stop offset="1" stop-color="white" stop-opacity="0.3"/>
</linearGradient>
<linearGradient id="paint14_linear_254_927" x1="70.3544" y1="42.9092" x2="70.3544" y2="259.919" gradientUnits="userSpaceOnUse">
<stop stop-color="white" stop-opacity="0.1"/>
<stop offset="1" stop-color="white" stop-opacity="0"/>
</linearGradient>
<linearGradient id="paint15_linear_254_927" x1="70.3544" y1="42.9092" x2="70.3544" y2="250.344" gradientUnits="userSpaceOnUse">
<stop stop-color="white"/>
<stop offset="1" stop-color="white" stop-opacity="0.3"/>
</linearGradient>
<radialGradient id="paint16_angular_254_927" cx="0" cy="0" r="1" gradientUnits="userSpaceOnUse" gradientTransform="translate(70.2349 151.79) rotate(90) scale(12.9161)">
<stop stop-color="white"/>
<stop offset="1" stop-color="#313131"/>
</radialGradient>
</defs>
</svg>
